<svg xmlns="http://www.w3.org/2000/svg" width="1100" height="1100" viewBox="0 0 1100 1100">
  <rect width="1100" height="1100" fill="#C5182C"/>
  <g transform="translate(550, 550) scale(0.85) translate(-550, -550)">
    <path fill="#FFFFFF" d="m 624.89232,614.07154 c 0,1.9 0.5,2.9 1.6,2.9 0.9,0 1.6,-0.4 2.5,-0.9 l 311.5,-194.2 c 5.5,-3.5 10.4,-5.4 18,-5.4 h 68.49998 c 10.6,0 17.6,6.8 17.6,17 v 125.3 c 0,15.1 -3.4,23.9 -17.6,32.1 l -83.09998,47.8 c -1,0.8 -2,1 -2.8,1 -1,0 -1.9,-0.6 -1.9,-3.4 v -146.5 c 0,-1.6 -0.5,-2.9 -1.8,-2.9 -0.9,0 -1.5,0.4 -2.4,0.9 l -227.7,141.9 c -6.4,4 -11.6,5.2 -17.5,5.2 h -151 c -10.4,0 -17.6,-6.8 -17.6,-16.8 v -180.7 c 0,-1.3 -0.6,-2.4 -1.6,-2.4 -0.9,0 -1.6,0.3 -2.5,0.8 l -150.2,86.6 c -1.5,0.9 -1.9,1.8 -1.9,2.4 0,0.6 0.3,1.1 1.4,2.1 l 107.2,102.8 c 1.4,1.4 2.4,2.5 2.4,3.5 0,1.1 -1.5,1.8 -3.4,1.8 h -97 c -7.5,0 -13.5,-1.1 -17.6,-5 l -65.1,-62.5 c -0.8,-0.8 -1.3,-1 -1.9,-1 -0.7,0.1 -1.5,0.3 -2.1,0.6 l -108.7,62.9 c -6.5,3.8 -11.1,4.9 -17.6,4.9 H 62.192319 c -10.6,-0.1 -17.6,-6.8 -17.6,-16.9 v -123.1 c 0,-15.3 3.4,-23.9 17.6,-32.1 l 83.600001,-48.1 c 0.9,-0.5 1.5,-0.6 2.3,-0.6 1.1,0 1.9,1.3 1.9,3.9 v 164.7 c 0,1.6 0.5,2.5 1.8,2.5 0.6,0 1.5,-0.5 2.4,-1 l 282.2,-162.8 c 6.7,-3.9 10.8,-5 18.6,-5 h 152 c 10.6,0 17.6,6.8 17.6,16.8 z"/>
  </g>
</svg>