<svg
   width="400"
   height="400"
   viewBox="0 0 400 400"
   version="1.1"
   id="svg2"
   sodipodi:docname="LI.svg"
   inkscape:version="1.4.3 (0d15f75, 2025-12-25)"
   xmlns:inkscape="http://www.inkscape.org/namespaces/inkscape"
   xmlns:sodipodi="http://sodipodi.sourceforge.net/DTD/sodipodi-0.dtd"
   xmlns="http://www.w3.org/2000/svg"
   xmlns:svg="http://www.w3.org/2000/svg">
  <defs
     id="defs3" />
  <sodipodi:namedview
     id="namedview2"
     pagecolor="#ffffff"
     bordercolor="#000000"
     borderopacity="0.25"
     inkscape:showpageshadow="2"
     inkscape:pageopacity="0.0"
     inkscape:pagecheckerboard="0"
     inkscape:deskcolor="#d1d1d1"
     inkscape:zoom="2.27375"
     inkscape:cx="62.891699"
     inkscape:cy="198.13084"
     inkscape:window-width="3840"
     inkscape:window-height="2054"
     inkscape:window-x="-11"
     inkscape:window-y="-11"
     inkscape:window-maximized="1"
     inkscape:current-layer="svg2" />
  <rect
     width="400"
     height="400"
     fill="#1677FF"
     id="rect1" />
  <g
     transform="matrix(0.19142563,0,0,0.19142563,41.120101,145.37308)"
     id="g2">
    <g
       clip-path="url(#a)"
       id="g1">
      <path
         fill-rule="evenodd"
         d="m 1909.5,15.02 c 4.61,0 8.45,3.84 8.45,8.45 v 523.8 c 0,2.31 1.53,3.84 3.83,3.84 l 160.26,-0.77 39.11,72.2 h -277.59 c -4.6,0 -8.43,-3.84 -8.43,-8.45 V 23.47 c 0,-4.61 3.83,-8.45 8.43,-8.45 z m -476.95,318.74 157.96,288.78 H 1102.82 L 944.09,333.76 Z M 2746.1,18.1 c 5.37,0 9.2,2.3 9.2,7.68 l 130.36,587.54 v 1.54 c 0,5.38 -2.3,7.68 -7.66,7.68 h -67.49 c -3.83,0 -6.9,-2.3 -8.43,-7.68 l -19.17,-99.08 c 0,-0.76 -0.77,-2.3 -1.53,-2.3 -0.77,-0.77 -1.54,-0.77 -3.07,-0.77 h -138.79 c -1.54,0 -2.31,0 -3.07,0.77 -0.77,0.77 -1.53,1.54 -1.53,2.3 l -19.94,99.08 c -0.77,5.38 -3.83,7.68 -9.2,7.68 h -65.95 c -3.07,0 -5.36,-0.77 -6.14,-2.3 -1.53,-1.54 -1.53,-3.84 -1.53,-6.92 L 2660.99,25.78 c 0.76,-5.38 4.6,-7.68 9.2,-7.68 z m 1065.1,151.3 c 45.24,0 80.54,13.05 106.59,38.4 26.09,25.35 39.1,58.37 39.1,99.07 V 486.6 c 0,41.47 -13.01,74.5 -39.1,99.07 -26.05,24.58 -61.35,36.87 -106.59,36.87 -44.48,0 -80.5,-12.29 -106.59,-36.87 -26.05,-24.57 -39.1,-57.6 -39.1,-99.07 V 306.87 c 0,-40.7 13.05,-73.72 39.89,-99.07 26.81,-25.35 62.12,-38.4 105.8,-38.4 z M 2246.14,139.45 c 5.37,0 8.44,3.07 8.44,8.44 v 466.2 c 0,5.38 -2.31,8.45 -8.44,8.45 h -65.95 c -5.36,0 -8.43,-2.3 -8.43,-8.45 v -466.2 c 0,-5.37 2.3,-8.44 8.43,-8.44 z M 454.09,2.73 c 5.37,9.99 112.72,205.84 118.1,215.05 16.87,31.49 34.51,58.38 62.88,81.42 36.8,29.95 95.07,35.32 151.05,35.32 l 38.02,-0.01 c 17.27,-0.04 6.92,-0.2 59.37,-0.75 l 78.98,144.01 78.99,144 H 638.9 C 587.52,621.77 536.91,621 486.3,608.72 434.92,597.19 391.99,576.46 350.57,545.73 266.22,483.52 218.68,400.58 169.61,311.49 L 84.87,157.11 0.14,2.73 Z M 3035.2,175.54 c 5.36,0 8.43,3.07 8.43,8.45 v 291.09 c 0,49.92 19.93,74.49 59.04,74.49 19.94,0 34.51,-6.91 45.24,-21.5 10.74,-13.82 16.11,-33.79 16.11,-58.37 V 183.22 c 0,-3.84 3.06,-6.91 8.43,-6.91 h 65.96 c 5.35,0 8.42,3.07 8.42,8.45 v 422.42 c 0,6.14 -3.07,8.44 -8.42,8.44 h -65.96 c -6.13,0 -8.43,-3.07 -8.43,-8.44 v -25.35 c 0,-1.53 -0.77,-2.3 -1.54,-2.3 -0.76,0 -1.53,0.77 -3.06,1.53 -17.64,26.89 -45.25,40.71 -82.82,40.71 -34.51,0 -62.11,-10.75 -83.58,-31.49 -21.48,-20.74 -32.21,-52.99 -32.21,-96.77 V 183.99 c 0,-5.38 3.07,-8.45 8.44,-8.45 z M 3472.28,71.86 c 5.38,0 8.45,3.07 8.45,8.45 v 97.54 c 0,2.3 0.76,3.84 3.83,3.84 h 60.56 c 6.14,0 8.45,3.07 8.45,8.45 v 43.01 c 0.76,6.91 -2.31,9.98 -7.69,9.98 h -60.56 c -2.31,0 -3.83,1.54 -3.83,3.84 v 242.7 c 0,23.04 3.83,39.17 12.25,47.62 7.69,9.21 20.7,13.05 38.34,12.29 h 7.69 c 5.35,0 8.42,3.07 8.42,8.44 v 55.3 c 0,6.15 -3.07,8.45 -8.42,8.45 h -26.85 c -36.81,0 -64.42,-6.91 -83.57,-21.5 -18.43,-14.6 -28.4,-41.48 -28.4,-82.18 V 245.43 c 0,-2.3 -1.52,-3.84 -3.04,-3.84 h -33.75 c -6.14,0 -8.44,-3.07 -8.44,-8.44 v -43.01 c 0,-5.38 3.07,-8.45 8.44,-8.45 h 33.75 c 2.28,0 3.04,-0.77 3.04,-3.84 V 80.31 c 0,-5.38 3.07,-8.45 8.45,-8.45 z m 338.92,168.2 c -18.39,0 -33.75,6.91 -45.24,19.97 -11.49,13.05 -17.63,29.95 -17.63,50.69 v 168.96 c 0,20.74 6.14,37.64 17.63,50.7 11.49,13.05 26.85,19.19 45.24,19.19 18.43,0.77 33.75,-6.14 45.24,-19.19 11.52,-13.06 17.63,-29.96 17.63,-50.7 V 310.72 c 0,-20.74 -6.11,-37.64 -17.63,-50.69 -11.49,-13.06 -26.81,-19.97 -45.24,-19.97 z M 2710.83,144.82 c -0.77,0 -1.53,0.77 -1.53,2.31 l -59.05,295.69 c 0,2.31 0.77,3.84 2.3,3.84 h 114.26 c 1.53,0 2.3,-0.77 2.3,-3.84 l -56.75,-295.69 c -0.76,-1.54 -1.53,-2.31 -1.53,-2.31 z M 1250.04,0.43 1407.24,288.44 H 918.79 L 761.59,0.43 Z m 996.1,14.59 c 5.37,0 8.44,3.07 8.44,8.45 v 66.05 c 0,5.38 -2.31,8.45 -8.44,8.45 h -65.95 c -5.36,0 -8.43,-2.3 -8.43,-8.45 V 23.47 c 0,-5.38 2.3,-8.45 8.43,-8.45 z"
         id="path1" />
    </g>
    <defs
       id="defs2">
      <clipPath
         id="a"
         clipPathUnits="userSpaceOnUse">
        <path
           d="M -68.88,-103.26 H 1656.46 V 760.79 H -68.88 Z"
           id="path2" />
      </clipPath>
    </defs>
  </g>
</svg>
