<svg
   version="1.1"
   id="Layer_1"
   x="0px"
   y="0px"
   viewBox="0 0 500 500"
   style="enable-background:new 0 0 500 500;"
   xml:space="preserve"
   sodipodi:docname="smart.svg"
   inkscape:version="1.4.3 (0d15f75, 2025-12-25)"
   xmlns:inkscape="http://www.inkscape.org/namespaces/inkscape"
   xmlns:sodipodi="http://sodipodi.sourceforge.net/DTD/sodipodi-0.dtd"
   xmlns="http://www.w3.org/2000/svg"
   xmlns:svg="http://www.w3.org/2000/svg"><defs
   id="defs39" /><sodipodi:namedview
   id="namedview39"
   pagecolor="#ffffff"
   bordercolor="#000000"
   borderopacity="0.25"
   inkscape:showpageshadow="2"
   inkscape:pageopacity="0.0"
   inkscape:pagecheckerboard="0"
   inkscape:deskcolor="#d1d1d1"
   inkscape:zoom="2.5724545"
   inkscape:cx="148.88505"
   inkscape:cy="253.26007"
   inkscape:window-width="3840"
   inkscape:window-height="2054"
   inkscape:window-x="-11"
   inkscape:window-y="-11"
   inkscape:window-maximized="1"
   inkscape:current-layer="Layer_1" /><rect
   width="500"
   height="500"
   fill="#D7E600"
   id="rect1" />
<style
   type="text/css"
   id="style1">
	.st0{fill:#EAB52F;}
	.st1{fill:#B0B3B5;}
	.st2{fill:url(#_91331920_1_);}
	.st3{fill:url(#XMLID_33_);}
	.st4{fill:url(#XMLID_34_);}
	.st5{fill:url(#XMLID_38_);}
	.st6{fill:url(#XMLID_39_);}
	.st7{fill:url(#XMLID_40_);}
</style>
<g
   id="XMLID_1_"
   transform="matrix(1.2210536,0,0,1.2210536,-57.774661,-59.103405)">
	<g
   id="XMLID_14_">
		<path
   id="XMLID_16_"
   class="st0"
   d="m 133.4,208.9 1.4,0.9 c 10.7,6.9 25.9,28.5 30,40.1 l 0.1,0.3 -0.1,0.3 c -4,11.6 -19.3,33.2 -30,40.1 l -1.4,0.9 z" />
	</g>
	<path
   id="_93038808"
   class="st1"
   d="m 377.8,242.1 v 34.2 h 11.7 v -33.5 c 0,-4.7 3.8,-8.5 8.5,-8.5 h 5.4 v -11.2 h -6 c -10.6,0.1 -19.2,8.4 -19.6,19 z m 51.8,23 c -4.6,0 -8.4,-3.8 -8.4,-8.5 0,0 0,-21.2 0,-22.4 1.1,0 12.9,0 12.9,0 V 223 c 0,0 -11.8,0 -12.9,0 0,-1.1 0,-10.5 0,-10.5 h -11.8 v 44.7 c 0.4,10.6 9.1,18.9 19.6,19 h 6 V 265 h -5.4 z m -140.7,-43 c -5.8,0 -11.3,2.7 -15,7.1 -3.6,-4.4 -9.2,-7.1 -15,-7.1 -10.2,0 -18.7,8 -19.2,18.2 v 36 h 11.8 v -34.6 c 0,-4.8 3.6,-8.6 8.3,-8.6 3.8,0 8.3,2.6 8.3,9.9 v 33.2 h 11.7 V 243 c 0,-6.8 4.3,-9.9 8.3,-9.9 4.9,0 8.3,3.5 8.3,8.6 v 34.6 h 11.7 v -36 c -0.6,-10.2 -9,-18.2 -19.2,-18.2 z m 53.7,0.1 c -15.2,0 -27.1,12 -27.1,27.4 0,16.1 11.5,27.8 27.3,27.8 6.1,0 11.7,-2.3 15.1,-6.1 v 5 h 11.7 v -26.4 c 0.1,-16.1 -11.3,-27.7 -27,-27.7 z m 0.2,43.9 c -8.8,0 -15.9,-7.4 -15.9,-16.3 0,-9 7.1,-16.3 15.9,-16.3 8.7,0 15.9,7.3 15.9,16.3 -0.1,9.6 -6.6,16.3 -15.9,16.3 z M 212.3,244.5 c -11.4,-1.3 -13.6,-3.4 -13.6,-6.5 0,-4.9 7.4,-5.5 10.7,-5.5 5.6,0 11.2,2.2 15.1,5.6 l 7.5,-7.5 c -3,-2.5 -10.2,-8.4 -24.4,-8.4 -14,0 -21.6,8.5 -21.6,16.5 0,9.5 7.4,14.9 22.6,16.6 6.4,0.7 11.2,1.6 11.2,6 0,8.2 -20.6,7.4 -28.8,-1.7 l -8.1,8.2 c 0.8,0.9 10.3,9.7 24.7,9.7 17.1,0 24.9,-8.4 24.9,-16.2 0,-9.9 -6.4,-15.2 -20.2,-16.8 z" />
	<linearGradient
   id="_91331920_1_"
   gradientUnits="userSpaceOnUse"
   x1="134.93291"
   y1="250.20399"
   x2="164.0013"
   y2="250.20399">
		<stop
   offset="0"
   style="stop-color:#FCD121"
   id="stop1" />
		<stop
   offset="0.4532"
   style="stop-color:#FBCA2B"
   id="stop2" />
		<stop
   offset="0.4807"
   style="stop-color:#F9C82B"
   id="stop3" />
		<stop
   offset="0.7872"
   style="stop-color:#E9B528"
   id="stop4" />
		<stop
   offset="1"
   style="stop-color:#E3AE27"
   id="stop5" />
	</linearGradient>
	<path
   id="_91331920"
   class="st2"
   d="m 134.9,211.3 c 10.3,6.7 25.1,27.4 29.1,38.9 -4,11.5 -18.8,32.2 -29.1,38.9 z"
   style="fill:url(#_91331920_1_)" />
	<g
   id="XMLID_2_">
		<linearGradient
   id="XMLID_33_"
   gradientUnits="userSpaceOnUse"
   x1="77.555702"
   y1="280.3118"
   x2="141.8961"
   y2="220.3134">
			<stop
   offset="0"
   style="stop-color:#C7C9CC"
   id="stop6" />
			<stop
   offset="0.1079"
   style="stop-color:#CED0D2"
   id="stop7" />
			<stop
   offset="0.2643"
   style="stop-color:#E1E2E2"
   id="stop8" />
			<stop
   offset="0.2956"
   style="stop-color:#E6E6E6"
   id="stop9" />
			<stop
   offset="0.5271"
   style="stop-color:#F2F2F2"
   id="stop10" />
			<stop
   offset="0.6446"
   style="stop-color:#DFDFE0"
   id="stop11" />
			<stop
   offset="1"
   style="stop-color:#A9A9AD"
   id="stop12" />
		</linearGradient>
		<path
   id="XMLID_11_"
   class="st3"
   d="m 114.2,226.3 c 5.3,0 12,2.1 17.3,5.9 v -23 c -5.3,-3.3 -11.7,-5.2 -19.2,-5.2 -25.5,0 -46.1,20.6 -46.1,46.1 0,25.5 20.6,46 46.1,46 7.5,0 13.9,-1.8 19.2,-5.1 v -23.1 c -5.3,3.8 -12,5.9 -17.3,5.9 -14.3,0 -24.9,-10.5 -24.9,-23.7 0,-13.4 10.6,-23.8 24.9,-23.8 z"
   style="fill:url(#XMLID_33_)" />
		<linearGradient
   id="XMLID_34_"
   gradientUnits="userSpaceOnUse"
   x1="95.523201"
   y1="266.741"
   x2="132.6073"
   y2="233.3503">
			<stop
   offset="0"
   style="stop-color:#B3B3B3"
   id="stop13" />
			<stop
   offset="0.4236"
   style="stop-color:#F2F2F2"
   id="stop14" />
			<stop
   offset="0.4701"
   style="stop-color:#E9E9E9"
   id="stop15" />
			<stop
   offset="0.7065"
   style="stop-color:#BEBEBE"
   id="stop16" />
			<stop
   offset="0.8911"
   style="stop-color:#A3A3A3"
   id="stop17" />
			<stop
   offset="1"
   style="stop-color:#999999"
   id="stop18" />
		</linearGradient>
		<path
   id="XMLID_21_"
   class="st4"
   d="m 94,250 c 0,10.9 8.7,19.1 20.3,19.1 4.6,0 10.1,-2 14.4,-5.1 l 2.3,-1.8 v 6.2 c -5,3.7 -11.7,5.8 -17,5.8 -14.6,0 -25.2,-10.7 -25.2,-24.2 0,-13.6 10.5,-24.2 25.1,-24.2 5.3,0 12,2 17,5.7 v 6.2 l -2.3,-1.8 c -4.3,-3.1 -9.9,-5 -14.6,-5 -11.4,0 -20,8.2 -20,19.1 z"
   style="fill:url(#XMLID_34_)" />
		<g
   id="XMLID_3_">
			
				<linearGradient
   id="XMLID_38_"
   gradientUnits="userSpaceOnUse"
   x1="0.14309999"
   y1="-1.8055"
   x2="0.45269999"
   y2="-1.8055"
   gradientTransform="matrix(210.9021,-196.6693,-196.6693,-210.9021,-308.7487,-71.8682)">
				<stop
   offset="0"
   style="stop-color:#C7C9CC"
   id="stop19" />
				<stop
   offset="0.1075"
   style="stop-color:#CECFD2"
   id="stop20" />
				<stop
   offset="0.2622"
   style="stop-color:#E1E1E2"
   id="stop21" />
				<stop
   offset="0.2956"
   style="stop-color:#E6E6E6"
   id="stop22" />
				<stop
   offset="0.5091"
   style="stop-color:#CECECE"
   id="stop23" />
				<stop
   offset="0.5271"
   style="stop-color:#CCCCCC"
   id="stop24" />
				<stop
   offset="1"
   style="stop-color:#A9A9AD"
   id="stop25" />
			</linearGradient>
			<path
   id="XMLID_12_"
   class="st5"
   d="m 111.7,296.7 c -12.5,0 -24.2,-4.8 -33,-13.6 -8.8,-8.8 -13.7,-20.5 -13.7,-33 0,-25.7 20.9,-46.7 46.7,-46.7 7.3,0 13.9,1.8 19.5,5.3 l 0.3,0.2 v 24.6 l -1,-0.7 c -4.9,-3.5 -11.5,-5.8 -16.9,-5.8 -13.8,0 -24.2,9.9 -24.2,23.1 0,13.2 10.4,23.1 24.2,23.1 5.3,0 12,-2.3 16.9,-5.8 l 1,-0.7 v 24.6 l -0.3,0.2 c -5.6,3.4 -12.1,5.2 -19.5,5.2 z"
   style="fill:url(#XMLID_38_)" />
		</g>
		<g
   id="XMLID_4_">
			
				<linearGradient
   id="XMLID_39_"
   gradientUnits="userSpaceOnUse"
   x1="0.1508"
   y1="-1.8074"
   x2="0.44940001"
   y2="-1.8074"
   gradientTransform="matrix(210.9021,-196.6693,-196.6693,-210.9021,-308.7487,-71.8682)">
				<stop
   offset="0"
   style="stop-color:#C7C9CC"
   id="stop26" />
				<stop
   offset="0.1075"
   style="stop-color:#CECFD2"
   id="stop27" />
				<stop
   offset="0.2622"
   style="stop-color:#E1E1E2"
   id="stop28" />
				<stop
   offset="0.2956"
   style="stop-color:#E6E6E6"
   id="stop29" />
				<stop
   offset="0.5271"
   style="stop-color:#E6E6E6"
   id="stop30" />
				<stop
   offset="0.5466"
   style="stop-color:#E3E3E4"
   id="stop31" />
				<stop
   offset="1"
   style="stop-color:#A9A9AD"
   id="stop32" />
			</linearGradient>
			<path
   id="XMLID_13_"
   class="st6"
   d="m 112.4,295 c -12,0 -23.3,-4.7 -31.8,-13.2 C 72.1,273.3 67.4,262 67.4,250 c 0,-24.8 20.2,-45 45,-45 7,0 13.4,1.7 18.8,5.1 l 0.3,0.2 V 234 l -0.9,-0.7 c -4.7,-3.4 -11.1,-5.6 -16.3,-5.6 -13.3,0 -23.4,9.6 -23.4,22.3 0,12.7 10.1,22.3 23.4,22.3 5.2,0 11.6,-2.2 16.3,-5.6 l 0.9,-0.7 v 23.7 l -0.3,0.2 c -5.3,3.4 -11.6,5.1 -18.8,5.1 z"
   style="fill:url(#XMLID_39_)" />
		</g>
		<linearGradient
   id="XMLID_40_"
   gradientUnits="userSpaceOnUse"
   x1="65.773003"
   y1="250"
   x2="131.48849"
   y2="250">
			<stop
   offset="0"
   style="stop-color:#C7C9CC"
   id="stop33" />
			<stop
   offset="0.1075"
   style="stop-color:#CECFD2"
   id="stop34" />
			<stop
   offset="0.2622"
   style="stop-color:#E1E1E2"
   id="stop35" />
			<stop
   offset="0.2956"
   style="stop-color:#E6E6E6"
   id="stop36" />
			<stop
   offset="0.5271"
   style="stop-color:#F2F2F2"
   id="stop37" />
			<stop
   offset="0.6182"
   style="stop-color:#E3E3E4"
   id="stop38" />
			<stop
   offset="1"
   style="stop-color:#A9A9AD"
   id="stop39" />
		</linearGradient>
		<path
   id="XMLID_25_"
   class="st7"
   d="m 114.3,273.1 c -13.8,0 -24.2,-9.9 -24.2,-23.1 0,-13.2 10.4,-23.1 24.2,-23.1 5.4,0 12,2.3 16.9,5.8 l 0.2,0.1 v -24.5 c -5.5,-3.3 -11.9,-5 -19,-5 -25.7,0 -46.7,20.9 -46.7,46.7 0,12.5 4.9,24.2 13.7,33 8.8,8.8 20.5,13.6 33,13.6 7.2,0 13.6,-1.7 19,-4.9 v -24.5 l -0.2,0.1 c -4.9,3.6 -11.5,5.8 -16.9,5.8 z"
   style="fill:url(#XMLID_40_)" />
	</g>
</g>
</svg>
