<svg xmlns="http://www.w3.org/2000/svg" width="1000" height="1000" viewBox="0 0 1000 1000">
  <rect width="1000" height="1000" fill="#000000"/>
  <g transform="translate(500, 500) scale(0.8) translate(-386.55, -500)">
    <style type="text/css">
      .st0{fill:#E82127;}
    </style>
    <g>
      <path class="st0" d="M660.5,939.1v60.8H680v-40.5h71v40.5h19.5v-60.7L660.5,939.1 M677.8,919.4h75c10.4-2.1,18.2-11.3,20.3-20.1
        H657.5C659.7,908.2,667.5,917.4,677.8,919.4 M601.5,999.9c9.8-4.2,15.1-11.4,17.1-19.8h-87.4l0.1-80.8l-19.6,0.1v100.5L601.5,999.9
         M365.9,919.2h69.2c10.4-3,19.2-11,21.3-19.8h-110v59.4h90v20.8l-70.6,0.1c-11.1,3.1-20.4,10.5-25.1,20.3l5.7-0.1h109.4V939h-89.9
        L365.9,919.2 M195,919.3h74.9c10.4-2.1,18.2-11.3,20.3-20.2H174.6C176.8,908.1,184.6,917.3,195,919.3 M195,959.1h74.9
        c10.4-2.1,18.2-11.2,20.3-20.1H174.6C176.8,947.8,184.6,957,195,959.1 M195,999.9h74.9c10.4-2.1,18.2-11.3,20.3-20.2H174.6
        C176.8,988.7,184.6,997.8,195,999.9 M0,899.4c2.3,8.8,9.9,17.8,20.3,20h31.5l1.6,0.6v79.6h19.7v-79.6l1.8-0.6h31.6
        c10.6-2.7,18-11.2,20.2-20v-0.2H0V899.4"/>
      <g>
        <path class="st0" d="M386.6,700.5L485,147c93.8,0,123.4,10.3,127.7,52.3c0,0,62.9-23.5,94.7-71.1c-123.9-57.4-248.3-60-248.3-60
          l-72.6,88.5l0.2,0L314,68.2c0,0-124.5,2.6-248.3,60c31.7,47.7,94.7,71.1,94.7,71.1c4.3-42,33.9-52.3,127-52.3L386.6,700.5"/>
        <path class="st0" d="M386.6,42.6c100.1-0.8,214.7,15.5,332.1,66.6c15.7-28.2,19.7-40.7,19.7-40.7C610.1,17.8,490,0.4,386.6,0
          C283.1,0.4,163,17.8,34.8,68.5c0,0,5.7,15.4,19.7,40.7C171.8,58.1,286.4,41.8,386.6,42.6L386.6,42.6"/>
      </g>
    </g>
  </g>
</svg>