<svg
   width="60"
   height="60"
   viewBox="0 0 60 59.999999"
   version="1.1"
   id="svg170"
   sodipodi:docname="volvo.svg"
   inkscape:version="1.4.3 (0d15f75, 2025-12-25)"
   xmlns:inkscape="http://www.inkscape.org/namespaces/inkscape"
   xmlns:sodipodi="http://sodipodi.sourceforge.net/DTD/sodipodi-0.dtd"
   xmlns="http://www.w3.org/2000/svg"
   xmlns:svg="http://www.w3.org/2000/svg">
  <rect
     width="61.042343"
     height="61.221458"
     fill="#182871"
     id="rect1"
     x="-0.39456075"
     y="-0.42471746"
     style="stroke-width:0.0555746" />
  <defs
     id="defs170" />
  <sodipodi:namedview
     id="namedview170"
     pagecolor="#ffffff"
     bordercolor="#111111"
     borderopacity="1"
     inkscape:showpageshadow="0"
     inkscape:pageopacity="0"
     inkscape:pagecheckerboard="1"
     inkscape:deskcolor="#d1d1d1"
     inkscape:zoom="7.4745499"
     inkscape:cx="32.577212"
     inkscape:cy="38.597642"
     inkscape:window-width="1920"
     inkscape:window-height="1009"
     inkscape:window-x="-8"
     inkscape:window-y="-8"
     inkscape:window-maximized="1"
     inkscape:current-layer="svg170" />
  <path
     d="m 29.616864,16.246384 c 3.888,0 7.344,1.584 9.864,4.104 2.592,2.52 4.104,6.048 4.104,9.936 0,3.815 -1.512,7.344 -4.104,9.863 -2.521,2.521 -5.977,4.104 -9.864,4.104 -3.888,0 -7.344,-1.584 -9.936,-4.104 -2.521,-2.52 -4.104,-6.048 -4.104,-9.863 0,-3.889 1.584,-7.416 4.104,-9.937 2.592,-2.519 6.048,-4.103 9.936,-4.103 z m 0,0.216 a 13.77,13.77 0 0 0 -9.72,4.032 c -2.521,2.52 -4.104,5.976 -4.104,9.792 0,3.815 1.584,7.271 4.104,9.72 2.448,2.52 5.903,4.032 9.72,4.032 3.816,0 7.272,-1.513 9.72,-4.032 2.521,-2.448 4.032,-5.904 4.032,-9.72 0,-3.816 -1.512,-7.272 -4.032,-9.792 a 13.768,13.768 0 0 0 -9.72,-4.032 z"
     fill="#bcbcb6"
     id="path1" />
  <radialGradient
     id="a"
     cx="-1039.188"
     cy="1145.92"
     r="44.665001"
     gradientTransform="matrix(1,0,0,-1,1053.5148,1171.9184)"
     gradientUnits="userSpaceOnUse">
    <stop
       offset="0"
       stop-color="#fff"
       id="stop1" />
    <stop
       offset=".041"
       stop-color="#fafaf8"
       id="stop2" />
    <stop
       offset=".225"
       stop-color="#f8f8f5"
       id="stop3" />
    <stop
       offset=".287"
       stop-color="#dadad7"
       id="stop4" />
    <stop
       offset=".413"
       stop-color="#a3a4a1"
       id="stop5" />
    <stop
       offset=".52"
       stop-color="#7e7f7d"
       id="stop6" />
    <stop
       offset=".6"
       stop-color="#686866"
       id="stop7" />
    <stop
       offset=".646"
       stop-color="#5f5f5d"
       id="stop8" />
    <stop
       offset=".739"
       stop-color="#565754"
       id="stop9" />
    <stop
       offset=".899"
       stop-color="#3b3a37"
       id="stop10" />
    <stop
       offset="1"
       id="stop11" />
  </radialGradient>
  <path
     d="m 29.616864,8.8303842 c 4.896,0 9.432,1.6549998 13.032,4.3919998 l 2.376,-2.376 4.176,4.176 -2.376,2.448 c 2.664,3.6 4.176,7.992 4.176,12.744 0,11.808 -9.576,21.456 -21.384,21.456 -11.808,0 -21.3839991,-9.648 -21.3839991,-21.456 0,-11.809 9.5759991,-21.3839998 21.3839991,-21.3839998 z m 0,5.0399998 c -9,0 -16.344,7.344 -16.344,16.344 0,9.072 7.344,16.344 16.344,16.344 9,0 16.344,-7.272 16.344,-16.344 0,-9 -7.344,-16.344 -16.344,-16.344 z"
     fill="url(#a)"
     id="path11"
     style="fill:url(#a)" />
  <linearGradient
     id="b"
     gradientUnits="userSpaceOnUse"
     x1="-1032.338"
     y1="1144.546"
     x2="-1016.324"
     y2="1139.032"
     gradientTransform="matrix(1,0,0,-1,1053.5148,1171.9184)">
    <stop
       offset="0"
       stop-color="#dcdbd3"
       id="stop12" />
    <stop
       offset="1"
       stop-color="#fff"
       id="stop13" />
  </linearGradient>
  <path
     d="m 29.616864,13.798384 c 4.536,0 8.64,1.8 11.664,4.824 a 16.422,16.422 0 0 1 4.824,11.664 c 0,4.535 -1.872,8.64 -4.824,11.664 -3.024,2.951 -7.128,4.823 -11.664,4.823 a 16.555,16.555 0 0 1 -11.664,-4.823 c -2.952,-3.024 -4.824,-7.129 -4.824,-11.664 0,-4.608 1.872,-8.713 4.824,-11.664 2.952,-3.024 7.128,-4.824 11.664,-4.824 z m 0,0.216 c -4.464,0 -8.568,1.8 -11.52,4.752 -2.952,2.952 -4.752,6.984 -4.752,11.52 0,4.464 1.8,8.567 4.752,11.52 2.951,2.88 7.056,4.752 11.52,4.752 4.464,0 8.568,-1.872 11.521,-4.752 a 16.28,16.28 0 0 0 4.752,-11.52 c 0,-4.536 -1.801,-8.568 -4.752,-11.521 a 16.283,16.283 0 0 0 -11.521,-4.751 z"
     fill="url(#b)"
     id="path13"
     style="fill:url(#b)" />
  <radialGradient
     id="c"
     cx="-1011.188"
     cy="1127.921"
     r="49.019001"
     gradientTransform="matrix(1,0,0,-1,1053.5148,1171.9184)"
     gradientUnits="userSpaceOnUse">
    <stop
       offset="0"
       stop-color="#bbbcb7"
       id="stop14" />
    <stop
       offset="1"
       stop-color="#808079"
       id="stop15" />
  </radialGradient>
  <path
     d="m 29.616864,8.6863842 c 4.896,0 9.504,1.6559998 13.104,4.4639998 l -0.072,0.072 a 21.524,21.524 0 0 0 -13.032,-4.3919998 c -11.808,0 -21.3839991,9.5749998 -21.3839991,21.3839998 0,11.808 9.5759991,21.456 21.3839991,21.456 11.808,0 21.384,-9.648 21.384,-21.456 0,-4.752 -1.512,-9.145 -4.176,-12.744 l 0.072,-0.072 c 2.664,3.601 4.248,7.992 4.248,12.816 0,5.976 -2.448,11.376 -6.336,15.264 -3.889,3.889 -9.216,6.265 -15.192,6.265 a 21.44,21.44 0 0 1 -15.192,-6.265 c -3.887999,-3.96 -6.3359991,-9.288 -6.3359991,-15.264 0,-5.904 2.4480001,-11.304 6.3359991,-15.192 3.888,-3.888 9.216,-6.3359998 15.192,-6.3359998 z"
     fill="url(#c)"
     id="path15"
     style="fill:url(#c)" />
  <radialGradient
     id="d"
     cx="-1016.187"
     cy="1133.921"
     r="34.422001"
     gradientTransform="matrix(1,0,0,-1,1053.5148,1171.9184)"
     gradientUnits="userSpaceOnUse">
    <stop
       offset="0"
       stop-color="#fff"
       id="stop16" />
    <stop
       offset=".157"
       stop-color="#f1f1f2"
       id="stop17" />
    <stop
       offset=".298"
       stop-color="#e4e4e5"
       id="stop18" />
    <stop
       offset=".335"
       stop-color="#cecfce"
       id="stop19" />
    <stop
       offset=".4"
       stop-color="#aeafac"
       id="stop20" />
    <stop
       offset=".464"
       stop-color="#969694"
       id="stop21" />
    <stop
       offset=".526"
       stop-color="#858683"
       id="stop22" />
    <stop
       offset=".586"
       stop-color="#7c7c79"
       id="stop23" />
    <stop
       offset=".64"
       stop-color="#787976"
       id="stop24" />
    <stop
       offset=".738"
       stop-color="#5e5e5b"
       id="stop25" />
    <stop
       offset=".846"
       stop-color="#43423f"
       id="stop26" />
    <stop
       offset=".937"
       stop-color="#1f1f1e"
       id="stop27" />
    <stop
       offset="1"
       id="stop28" />
  </radialGradient>
  <path
     d="m 29.616864,13.942384 c 9,0 16.344,7.272 16.344,16.345 0,9 -7.344,16.344 -16.344,16.344 -9,0 -16.344,-7.345 -16.344,-16.345 0,-9.072 7.344,-16.344 16.344,-16.344 z m 0,2.304 c -7.704,0 -13.968,6.264 -13.968,14.04 0,7.703 6.264,13.968 13.968,13.968 7.704,0 13.968,-6.265 13.968,-13.968 0,-7.776 -6.264,-14.04 -13.968,-14.04 z"
     fill="url(#d)"
     id="path28"
     style="fill:url(#d)" />
  <linearGradient
     id="e"
     gradientUnits="userSpaceOnUse"
     x1="-1043.3571"
     y1="1136.424"
     x2="-1043.3571"
     y2="1136.545"
     gradientTransform="matrix(1,0,0,-1,1053.5148,1171.9184)">
    <stop
       offset="0"
       stop-color="#fff"
       id="stop29" />
    <stop
       offset=".17"
       stop-color="#f8f8f5"
       id="stop30" />
    <stop
       offset=".427"
       stop-color="#b1b1ac"
       id="stop31" />
    <stop
       offset=".435"
       stop-color="#adaea8"
       id="stop32" />
    <stop
       offset=".534"
       stop-color="#898984"
       id="stop33" />
    <stop
       offset=".633"
       stop-color="#6c6c67"
       id="stop34" />
    <stop
       offset=".731"
       stop-color="#53534e"
       id="stop35" />
    <stop
       offset=".825"
       stop-color="#3e3e3a"
       id="stop36" />
    <stop
       offset=".916"
       stop-color="#252523"
       id="stop37" />
    <stop
       offset="1"
       stop-color="#1b1a19"
       id="stop38" />
  </linearGradient>
  <path
     d="m 10.078865,35.403384 c 0,0.021 0.005,0.039 0.016,0.057 0.009,0.017 0.024,0.024 0.046,0.024 0.016,0 0.03,-0.004 0.047,-0.012 a 0.237,0.237 0 0 0 0.05,-0.036 v -0.159 c -0.06,0.01 -0.101,0.024 -0.124,0.045 a 0.108,0.108 0 0 0 -0.035,0.081 z"
     opacity="0.67"
     fill="url(#e)"
     id="path38"
     style="fill:url(#e)" />
  <linearGradient
     id="f"
     gradientUnits="userSpaceOnUse"
     x1="-1040.338"
     y1="1136.88"
     x2="-1040.338"
     y2="1136.929"
     gradientTransform="matrix(1,0,0,-1,1053.5148,1171.9184)">
    <stop
       offset="0"
       stop-color="#fff"
       id="stop39" />
    <stop
       offset=".17"
       stop-color="#f8f8f5"
       id="stop40" />
    <stop
       offset=".427"
       stop-color="#b1b1ac"
       id="stop41" />
    <stop
       offset=".435"
       stop-color="#adaea8"
       id="stop42" />
    <stop
       offset=".534"
       stop-color="#898984"
       id="stop43" />
    <stop
       offset=".633"
       stop-color="#6c6c67"
       id="stop44" />
    <stop
       offset=".731"
       stop-color="#53534e"
       id="stop45" />
    <stop
       offset=".825"
       stop-color="#3e3e3a"
       id="stop46" />
    <stop
       offset=".916"
       stop-color="#252523"
       id="stop47" />
    <stop
       offset="1"
       stop-color="#1b1a19"
       id="stop48" />
  </linearGradient>
  <path
     opacity="0.67"
     fill="url(#f)"
     d="m 13.126864,34.948384 h 0.101 v 0.085 h -0.101 z"
     id="path48"
     style="fill:url(#f)" />
  <linearGradient
     id="g"
     gradientUnits="userSpaceOnUse"
     x1="-1040.338"
     y1="1136.776"
     x2="-1040.338"
     y2="1136.827"
     gradientTransform="matrix(1,0,0,-1,1053.5148,1171.9184)">
    <stop
       offset="0"
       stop-color="#fff"
       id="stop49" />
    <stop
       offset=".17"
       stop-color="#f8f8f5"
       id="stop50" />
    <stop
       offset=".427"
       stop-color="#b1b1ac"
       id="stop51" />
    <stop
       offset=".435"
       stop-color="#adaea8"
       id="stop52" />
    <stop
       offset=".534"
       stop-color="#898984"
       id="stop53" />
    <stop
       offset=".633"
       stop-color="#6c6c67"
       id="stop54" />
    <stop
       offset=".731"
       stop-color="#53534e"
       id="stop55" />
    <stop
       offset=".825"
       stop-color="#3e3e3a"
       id="stop56" />
    <stop
       offset=".916"
       stop-color="#252523"
       id="stop57" />
    <stop
       offset="1"
       stop-color="#1b1a19"
       id="stop58" />
  </linearGradient>
  <path
     opacity="0.67"
     fill="url(#g)"
     d="m 13.126864,35.050384 h 0.101 v 0.087 h -0.101 z"
     id="path58"
     style="fill:url(#g)" />
  <linearGradient
     id="h"
     gradientUnits="userSpaceOnUse"
     x1="-1042.344"
     y1="1136.424"
     x2="-1042.344"
     y2="1136.545"
     gradientTransform="matrix(1,0,0,-1,1053.5148,1171.9184)">
    <stop
       offset="0"
       stop-color="#fff"
       id="stop59" />
    <stop
       offset=".17"
       stop-color="#f8f8f5"
       id="stop60" />
    <stop
       offset=".427"
       stop-color="#b1b1ac"
       id="stop61" />
    <stop
       offset=".435"
       stop-color="#adaea8"
       id="stop62" />
    <stop
       offset=".534"
       stop-color="#898984"
       id="stop63" />
    <stop
       offset=".633"
       stop-color="#6c6c67"
       id="stop64" />
    <stop
       offset=".731"
       stop-color="#53534e"
       id="stop65" />
    <stop
       offset=".825"
       stop-color="#3e3e3a"
       id="stop66" />
    <stop
       offset=".916"
       stop-color="#252523"
       id="stop67" />
    <stop
       offset="1"
       stop-color="#1b1a19"
       id="stop68" />
  </linearGradient>
  <path
     d="m 11.091865,35.403384 c 0,0.021 0.006,0.039 0.016,0.057 0.009,0.017 0.024,0.024 0.046,0.024 0.016,0 0.031,-0.004 0.047,-0.012 0.016,-0.008 0.032,-0.02 0.05,-0.036 v -0.159 c -0.06,0.01 -0.101,0.024 -0.124,0.045 a 0.108,0.108 0 0 0 -0.035,0.081 z"
     opacity="0.67"
     fill="url(#h)"
     id="path68"
     style="fill:url(#h)" />
  <linearGradient
     id="i"
     gradientUnits="userSpaceOnUse"
     x1="-1039.812"
     y1="1136.682"
     x2="-1039.812"
     y2="1136.759"
     gradientTransform="matrix(1,0,0,-1,1053.5148,1171.9184)">
    <stop
       offset="0"
       stop-color="#fff"
       id="stop69" />
    <stop
       offset=".17"
       stop-color="#f8f8f5"
       id="stop70" />
    <stop
       offset=".427"
       stop-color="#b1b1ac"
       id="stop71" />
    <stop
       offset=".435"
       stop-color="#adaea8"
       id="stop72" />
    <stop
       offset=".534"
       stop-color="#898984"
       id="stop73" />
    <stop
       offset=".633"
       stop-color="#6c6c67"
       id="stop74" />
    <stop
       offset=".731"
       stop-color="#53534e"
       id="stop75" />
    <stop
       offset=".825"
       stop-color="#3e3e3a"
       id="stop76" />
    <stop
       offset=".916"
       stop-color="#252523"
       id="stop77" />
    <stop
       offset="1"
       stop-color="#1b1a19"
       id="stop78" />
  </linearGradient>
  <path
     opacity="0.67"
     fill="url(#i)"
     d="m 13.564864,35.097384 h 0.276 v 0.131 h -0.276 z"
     id="path78"
     style="fill:url(#i)" />
  <linearGradient
     id="j"
     gradientUnits="userSpaceOnUse"
     x1="-1040.3979"
     y1="1134.5229"
     x2="-1040.3979"
     y2="1136.0649"
     gradientTransform="matrix(1,0,0,-1,1053.5148,1171.9184)">
    <stop
       offset="0"
       stop-color="#fff"
       id="stop79" />
    <stop
       offset=".17"
       stop-color="#f8f8f5"
       id="stop80" />
    <stop
       offset=".427"
       stop-color="#b1b1ac"
       id="stop81" />
    <stop
       offset=".435"
       stop-color="#adaea8"
       id="stop82" />
    <stop
       offset=".534"
       stop-color="#898984"
       id="stop83" />
    <stop
       offset=".633"
       stop-color="#6c6c67"
       id="stop84" />
    <stop
       offset=".731"
       stop-color="#53534e"
       id="stop85" />
    <stop
       offset=".825"
       stop-color="#3e3e3a"
       id="stop86" />
    <stop
       offset=".916"
       stop-color="#252523"
       id="stop87" />
    <stop
       offset="1"
       stop-color="#1b1a19"
       id="stop88" />
  </linearGradient>
  <path
     d="M 16.353864,34.644384 H 8.6978649 c 0.189,0.899 0.451,1.771 0.749,2.625 h 8.0899991 a 13.953,13.953 0 0 1 -1.183,-2.625 z m -3.264,0.167 0.059,0.037 -0.021,0.024 v 0.061 h 0.096 l 0.021,-0.034 0.04,0.047 -0.021,0.024 v 0.064 h 0.011 l 0.029,-0.037 0.042,0.054 h -0.084 l 0.002,0.115 -0.037,0.022 v -0.034 h -0.1 v 0.099 h 0.076 l 0.026,-0.041 0.04,0.058 h -0.142 v 0.091 h 0.124 l 0.029,-0.047 0.045,0.062 h -0.198 c 0,0.038 0.001,0.079 0.005,0.122 l -0.042,0.02 c 0.002,-0.052 0.004,-0.099 0.004,-0.142 h -0.106 a 0.072,0.072 0 0 0 -0.04,0.01 l -0.024,-0.027 h 0.17 v -0.091 h -0.077 c -0.015,0 -0.024,0.003 -0.032,0.01 l -0.021,-0.026 h 0.13 v -0.099 h -0.077 c -0.015,0 -0.024,0.003 -0.032,0.011 l -0.021,-0.028 h 0.13 v -0.087 h -0.114 c -0.015,0 -0.024,0.003 -0.031,0.01 l -0.021,-0.027 h 0.167 v -0.084 h -0.073 c -0.015,0 -0.025,0.004 -0.032,0.011 l -0.021,-0.027 h 0.124 a 1.45,1.45 0 0 0 -0.003,-0.121 z m -3.1499991,0.693 h -0.206 v -0.021 h 0.061 c 0.01,0 0.016,-0.002 0.02,-0.007 0.004,-0.005 0.005,-0.011 0.005,-0.02 v -0.482 a 0.034,0.034 0 0 0 -0.005,-0.02 0.027,0.027 0 0 0 -0.02,-0.008 h -0.06 v -0.02 h 0.03 a 0.147,0.147 0 0 0 0.087,-0.028 h 0.005 v 0.557 c 0,0.009 0.002,0.016 0.006,0.02 0.005,0.004 0.01,0.007 0.018,0.007 h 0.062 v 0.021 h -0.003 z m 0.3760001,-0.018 c -0.009,0.013 -0.021,0.02 -0.034,0.02 a 0.041,0.041 0 0 1 -0.029,-0.01 0.077,0.077 0 0 1 -0.016,-0.034 0.317,0.317 0 0 1 -0.049,0.036 0.118,0.118 0 0 1 -0.055,0.012 0.094,0.094 0 0 1 -0.073,-0.029 0.087,0.087 0 0 1 -0.026,-0.064 c 0,-0.041 0.014,-0.074 0.041,-0.101 0.027,-0.025 0.081,-0.044 0.162,-0.056 v -0.041 a 0.119,0.119 0 0 0 -0.012,-0.056 c -0.009,-0.016 -0.026,-0.022 -0.055,-0.022 -0.029,0 -0.051,0.006 -0.062,0.02 -0.012,0.013 -0.018,0.024 -0.013,0.038 a 0.042,0.042 0 0 1 0,0.027 0.023,0.023 0 0 1 -0.021,0.014 0.021,0.021 0 0 1 -0.017,-0.008 0.043,0.043 0 0 1 -0.008,-0.024 c 0,-0.021 0.012,-0.04 0.034,-0.059 a 0.133,0.133 0 0 1 0.084,-0.026 c 0.035,0 0.062,0.008 0.079,0.024 0.019,0.018 0.026,0.041 0.026,0.072 v 0.223 c 0,0.019 10e-4,0.029 0.004,0.032 0.003,0.003 0.007,0.005 0.015,0.005 0.009,0 0.016,-0.005 0.019,-0.015 0.003,-0.01 0.005,-0.024 0.005,-0.042 h 0.013 c 0.001,0.03 -0.003,0.052 -0.012,0.064 z m 0.343,0.018 h -0.111 v -0.021 h 0.014 c 0.009,0 0.015,-0.002 0.019,-0.007 0.004,-0.005 0.004,-0.01 0.004,-0.019 v -0.227 a 0.12,0.12 0 0 0 -0.013,-0.062 0.043,0.043 0 0 0 -0.039,-0.022 0.078,0.078 0 0 0 -0.049,0.021 0.184,0.184 0 0 0 -0.046,0.058 v 0.233 c 0,0.009 0.002,0.016 0.007,0.02 0.004,0.004 0.01,0.007 0.017,0.007 h 0.013 v 0.021 h -0.111 v -0.021 h 0.013 c 0.01,0 0.016,-0.002 0.02,-0.007 0.004,-0.005 0.005,-0.011 0.005,-0.02 v -0.291 c 0,-0.006 -0.001,-0.013 -0.003,-0.016 -0.002,-0.003 -0.006,-0.005 -0.011,-0.005 h -0.024 v -0.02 h 0.019 c 0.01,0 0.019,-0.001 0.026,-0.003 0.007,-0.002 0.016,-0.007 0.023,-0.015 h 0.005 v 0.078 a 0.256,0.256 0 0 1 0.047,-0.05 0.08,0.08 0 0 1 0.05,-0.017 c 0.03,0 0.052,0.01 0.066,0.029 a 0.167,0.167 0 0 1 0.021,0.092 v 0.216 c 0,0.009 0.002,0.016 0.007,0.02 0.005,0.004 0.011,0.007 0.018,0.007 h 0.013 z m 0.281,-0.026 c -0.016,0.021 -0.035,0.03 -0.061,0.03 -0.026,0 -0.046,-0.01 -0.059,-0.03 -0.013,-0.02 -0.021,-0.052 -0.021,-0.095 v -0.236 h -0.076 v -0.02 h 0.021 a 0.063,0.063 0 0 0 0.052,-0.025 c 0.014,-0.017 0.021,-0.043 0.025,-0.079 l 0.002,-0.026 h 0.016 v 0.131 h 0.105 v 0.02 h -0.105 v 0.25 c 0,0.032 0.005,0.054 0.014,0.064 0.009,0.012 0.021,0.017 0.04,0.017 a 0.05,0.05 0 0 0 0.042,-0.021 0.146,0.146 0 0 0 0.021,-0.062 l 0.014,0.007 a 0.172,0.172 0 0 1 -0.03,0.075 z m 0.389,0.008 c -0.009,0.013 -0.02,0.02 -0.034,0.02 -0.012,0 -0.021,-0.003 -0.028,-0.01 -0.008,-0.007 -0.013,-0.019 -0.017,-0.034 a 0.317,0.317 0 0 1 -0.049,0.036 0.113,0.113 0 0 1 -0.054,0.012 0.095,0.095 0 0 1 -0.1,-0.093 0.14,0.14 0 0 1 0.041,-0.101 c 0.027,-0.025 0.081,-0.044 0.162,-0.056 v -0.041 a 0.119,0.119 0 0 0 -0.012,-0.056 c -0.008,-0.016 -0.026,-0.022 -0.054,-0.022 -0.03,0 -0.052,0.006 -0.063,0.02 -0.012,0.013 -0.017,0.024 -0.013,0.038 0.003,0.01 0.003,0.019 0,0.027 -0.003,0.008 -0.011,0.014 -0.021,0.014 a 0.021,0.021 0 0 1 -0.017,-0.008 0.043,0.043 0 0 1 -0.007,-0.024 c 0,-0.021 0.011,-0.04 0.034,-0.059 a 0.13,0.13 0 0 1 0.084,-0.026 c 0.034,0 0.062,0.008 0.079,0.024 0.018,0.018 0.025,0.041 0.025,0.072 v 0.223 c 0,0.019 10e-4,0.029 0.004,0.032 0.003,0.003 0.007,0.005 0.016,0.005 0.009,0 0.015,-0.005 0.018,-0.015 0.003,-0.01 0.005,-0.024 0.005,-0.042 h 0.013 a 0.115,0.115 0 0 1 -0.012,0.064 z m 0.328,-0.29 c -0.004,0.008 -0.011,0.011 -0.02,0.011 -0.01,0 -0.017,-0.003 -0.021,-0.011 a 0.036,0.036 0 0 1 -0.004,-0.026 l -0.002,-0.018 c -10e-4,-0.003 -0.006,-0.006 -0.015,-0.006 -0.015,0 -0.031,0.011 -0.052,0.034 a 0.309,0.309 0 0 0 -0.054,0.095 v 0.183 c 0,0.009 0.002,0.016 0.006,0.02 0.004,0.004 0.01,0.007 0.018,0.007 h 0.058 v 0.021 h -0.194 v -0.021 h 0.054 c 0.009,0 0.015,-0.002 0.019,-0.007 0.004,-0.005 0.005,-0.011 0.005,-0.02 v -0.28 a 0.048,0.048 0 0 0 -0.005,-0.022 c -0.004,-0.005 -0.01,-0.008 -0.019,-0.008 h -0.054 v -0.02 h 0.021 a 0.199,0.199 0 0 0 0.084,-0.018 h 0.008 v 0.122 a 0.333,0.333 0 0 1 0.057,-0.083 0.087,0.087 0 0 1 0.062,-0.028 c 0.018,0 0.031,0.005 0.041,0.015 0.01,0.01 0.015,0.02 0.015,0.034 -0.001,0.012 -0.003,0.021 -0.008,0.026 z m 0.745,0.18 v 0.135 c 0,0.047 -0.02,0.08 -0.058,0.098 -10e-4,-0.033 -0.029,-0.058 -0.082,-0.073 v -0.014 l 0.076,0.008 c 0.017,0.001 0.023,-0.013 0.023,-0.042 v -0.112 h -0.212 a 0.125,0.125 0 0 0 -0.053,0.01 l -0.021,-0.026 h 0.287 l -0.002,-0.098 0.034,0.02 0.07,-0.077 h -0.217 l -0.023,0.01 -0.021,-0.027 h 0.261 l 0.029,-0.034 0.047,0.067 c -0.024,-0.004 -0.069,0.019 -0.137,0.071 l 0.026,0.017 -0.026,0.021 v 0.029 h 0.177 l 0.037,-0.047 0.053,0.064 z m 0.269,-0.202 c -0.025,0 -0.046,0.014 -0.058,0.041 a 0.414,0.414 0 0 1 -0.211,-0.256 h -0.015 c 0,0.104 10e-4,0.168 0.002,0.188 l -0.045,0.015 c 0.002,-0.05 0.003,-0.111 0.003,-0.187 a 0.584,0.584 0 0 1 -0.277,0.276 l -0.002,-0.015 a 0.648,0.648 0 0 0 0.242,-0.278 h -0.163 a 0.125,0.125 0 0 0 -0.053,0.01 l -0.021,-0.027 h 0.274 l -0.003,-0.121 0.068,0.037 -0.025,0.023 v 0.061 h 0.194 l 0.037,-0.047 0.047,0.064 h -0.25 a 0.324,0.324 0 0 0 0.256,0.202 z m 0.680999,0.364 c -0.035,0.014 -0.052,0.029 -0.048,0.051 a 2.29,2.29 0 0 1 -0.166,0 0.415,0.415 0 0 1 -0.159,-0.034 0.311,0.311 0 0 1 -0.109,-0.078 0.402,0.402 0 0 1 -0.124,0.131 l -0.008,-0.01 a 0.458,0.458 0 0 0 0.113,-0.152 0.65,0.65 0 0 1 -0.063,-0.172 l 0.011,-0.006 a 0.785,0.785 0 0 0 0.063,0.142 c 0.018,-0.059 0.03,-0.136 0.037,-0.229 h -0.077 l -0.021,0.037 -0.036,-0.047 0.031,-0.018 a 3.97,3.97 0 0 0 0.09,-0.198 h -0.086 l -0.03,0.01 -0.021,-0.027 h 0.141 l 0.023,-0.037 0.037,0.055 -0.029,0.017 c -0.029,0.061 -0.062,0.125 -0.095,0.192 h 0.071 l 0.021,-0.03 0.04,0.047 -0.023,0.023 a 1.169,1.169 0 0 1 -0.047,0.235 0.209,0.209 0 0 0 0.094,0.064 0.49,0.49 0 0 0 0.141,0.028 c 0.053,0.005 0.13,0 0.232,-0.008 z m 0.65,-0.007 c -0.031,0.007 -0.05,0.024 -0.055,0.055 a 0.694,0.694 0 0 1 -0.131,-0.067 0.394,0.394 0 0 1 -0.1,-0.103 0.491,0.491 0 0 1 -0.067,-0.17 h -0.084 v 0.27 l 0.142,-0.078 0.005,0.01 a 0.562,0.562 0 0 0 -0.163,0.143 l -0.031,-0.057 a 0.083,0.083 0 0 0 0.013,-0.041 v -0.487 c 0,-0.036 -10e-4,-0.067 -0.003,-0.094 l 0.037,0.033 h 0.134 a 0.264,0.264 0 0 0 -0.045,-0.117 l 0.005,-0.011 c 0.044,0.025 0.069,0.047 0.075,0.067 0.006,0.02 0,0.041 -0.018,0.061 h 0.119 l 0.021,-0.033 0.042,0.047 -0.024,0.02 v 0.192 l 0.002,0.088 -0.037,0.017 v -0.03 h -0.174 a 0.516,0.516 0 0 0 0.071,0.147 0.584,0.584 0 0 0 0.164,-0.135 l 0.039,0.067 h -0.031 c -0.053,0.023 -0.105,0.052 -0.161,0.08 a 0.299,0.299 0 0 0 0.123,0.087 0.387,0.387 0 0 0 0.133,0.024 z"
     opacity="0.67"
     fill="url(#j)"
     id="path88"
     style="fill:url(#j)" />
  <linearGradient
     id="k"
     gradientUnits="userSpaceOnUse"
     x1="-1039.812"
     y1="1136.832"
     x2="-1039.812"
     y2="1136.901"
     gradientTransform="matrix(1,0,0,-1,1053.5148,1171.9184)">
    <stop
       offset="0"
       stop-color="#fff"
       id="stop89" />
    <stop
       offset=".17"
       stop-color="#f8f8f5"
       id="stop90" />
    <stop
       offset=".427"
       stop-color="#b1b1ac"
       id="stop91" />
    <stop
       offset=".435"
       stop-color="#adaea8"
       id="stop92" />
    <stop
       offset=".534"
       stop-color="#898984"
       id="stop93" />
    <stop
       offset=".633"
       stop-color="#6c6c67"
       id="stop94" />
    <stop
       offset=".731"
       stop-color="#53534e"
       id="stop95" />
    <stop
       offset=".825"
       stop-color="#3e3e3a"
       id="stop96" />
    <stop
       offset=".916"
       stop-color="#252523"
       id="stop97" />
    <stop
       offset="1"
       stop-color="#1b1a19"
       id="stop98" />
  </linearGradient>
  <path
     opacity="0.67"
     fill="url(#k)"
     d="m 13.564864,34.962384 h 0.276 v 0.118 h -0.276 z"
     id="path98"
     style="fill:url(#k)" />
  <linearGradient
     id="l"
     gradientUnits="userSpaceOnUse"
     x1="-1823.484"
     y1="1134.524"
     x2="-1823.484"
     y2="1136.066"
     gradientTransform="rotate(180,-888.67757,585.9592)">
    <stop
       offset="0"
       stop-color="#fff"
       id="stop99" />
    <stop
       offset=".17"
       stop-color="#f8f8f5"
       id="stop100" />
    <stop
       offset=".427"
       stop-color="#b1b1ac"
       id="stop101" />
    <stop
       offset=".435"
       stop-color="#adaea8"
       id="stop102" />
    <stop
       offset=".534"
       stop-color="#898984"
       id="stop103" />
    <stop
       offset=".633"
       stop-color="#6c6c67"
       id="stop104" />
    <stop
       offset=".731"
       stop-color="#53534e"
       id="stop105" />
    <stop
       offset=".825"
       stop-color="#3e3e3a"
       id="stop106" />
    <stop
       offset=".916"
       stop-color="#252523"
       id="stop107" />
    <stop
       offset="1"
       stop-color="#1b1a19"
       id="stop108" />
  </linearGradient>
  <path
     d="m 42.890864,34.644384 h 7.655 a 20.88,20.88 0 0 1 -0.749,2.625 h -8.09 c 0.48,-0.827 0.88,-1.703 1.184,-2.625 z"
     opacity="0.86"
     fill="url(#l)"
     id="path108"
     style="fill:url(#l)" />
  <path
     d="m 50.928864,24.814384 c 0.504,1.729 0.72,3.528 0.72,5.4 0,1.944 -0.288,3.815 -0.72,5.616 H 8.3768649 v -0.072 H 50.856864 c 0.504,-1.8 0.72,-3.672 0.72,-5.616 0,-1.872 -0.216,-3.672 -0.648,-5.328 z"
     id="path109" />
  <radialGradient
     id="m"
     cx="-1043.936"
     cy="1145.9189"
     r="27.789"
     gradientTransform="matrix(1,0,0,-1,1053.5148,1171.9184)"
     gradientUnits="userSpaceOnUse">
    <stop
       offset="0"
       stop-color="#1e71b8"
       id="stop109" />
    <stop
       offset=".082"
       stop-color="#1c69ab"
       id="stop110" />
    <stop
       offset=".166"
       stop-color="#1b64a4"
       id="stop111" />
    <stop
       offset=".242"
       stop-color="#1a63a1"
       id="stop112" />
    <stop
       offset=".392"
       stop-color="#185d98"
       id="stop113" />
    <stop
       offset=".685"
       stop-color="#0f4d80"
       id="stop114" />
    <stop
       offset=".837"
       stop-color="#004472"
       id="stop115" />
    <stop
       offset=".933"
       stop-color="#014472"
       id="stop116" />
    <stop
       offset=".968"
       stop-color="#064271"
       id="stop117" />
    <stop
       offset=".993"
       stop-color="#0d3f6f"
       id="stop118" />
    <stop
       offset="1"
       stop-color="#0f3d6e"
       id="stop119" />
  </radialGradient>
  <path
     d="M 8.3048649,24.742384 H 50.928864 c 0.432,1.728 0.647,3.527 0.647,5.399 0,1.944 -0.216,3.816 -0.72,5.616 H 8.3768649 a 20.735,20.735 0 0 1 -0.792,-5.615 c 0,-1.872 0.288,-3.672 0.72,-5.4 z"
     fill="url(#m)"
     id="path119"
     style="fill:url(#m)" />
  <linearGradient
     id="n"
     gradientUnits="userSpaceOnUse"
     x1="-1003.294"
     y1="1151.811"
     x2="-1014.121"
     y2="1162.639"
     gradientTransform="matrix(1,0,0,-1,1053.5148,1171.9184)">
    <stop
       offset=".006"
       stop-color="#121209"
       id="stop120" />
    <stop
       offset=".646"
       stop-color="#454441"
       id="stop121" />
    <stop
       offset=".65"
       stop-color="#484845"
       id="stop122" />
    <stop
       offset=".655"
       stop-color="#535350"
       id="stop123" />
    <stop
       offset=".66"
       stop-color="#646561"
       id="stop124" />
    <stop
       offset=".664"
       stop-color="#7b7b77"
       id="stop125" />
    <stop
       offset=".669"
       stop-color="#969792"
       id="stop126" />
    <stop
       offset=".674"
       stop-color="#bbbbb7"
       id="stop127" />
    <stop
       offset=".678"
       stop-color="#e8e7e2"
       id="stop128" />
    <stop
       offset=".68"
       stop-color="#fbfaf5"
       id="stop129" />
    <stop
       offset=".682"
       stop-color="#f8f7f2"
       id="stop130" />
    <stop
       offset=".684"
       stop-color="#f0f0ea"
       id="stop131" />
    <stop
       offset=".685"
       stop-color="#e4e3dd"
       id="stop132" />
    <stop
       offset=".686"
       stop-color="#d2d2cc"
       id="stop133" />
    <stop
       offset=".687"
       stop-color="#bbbcb5"
       id="stop134" />
    <stop
       offset=".689"
       stop-color="#a0a19a"
       id="stop135" />
    <stop
       offset=".689"
       stop-color="#83847d"
       id="stop136" />
    <stop
       offset=".69"
       stop-color="#6d6d67"
       id="stop137" />
    <stop
       offset=".706"
       stop-color="#5f5f5b"
       id="stop138" />
    <stop
       offset=".732"
       stop-color="#4d4d4b"
       id="stop139" />
    <stop
       offset=".762"
       stop-color="#3b3a3a"
       id="stop140" />
    <stop
       offset=".8"
       stop-color="#242324"
       id="stop141" />
    <stop
       offset=".853"
       stop-color="#101010"
       id="stop142" />
    <stop
       offset="1"
       id="stop143" />
  </linearGradient>
  <path
     fill="url(#n)"
     d="m 45.888864,9.4053842 4.752,4.7529998 -3.528,3.528 0.216,0.288 -2.52,2.015 -0.792,0.289 5.184,-5.256 -4.176,-4.176 -5.184,5.184 0.216,-0.72 z"
     id="path143"
     style="fill:url(#n)" />
  <radialGradient
     id="o"
     cx="-1004.186"
     cy="1161.92"
     r="11.613"
     gradientTransform="matrix(1,0,0,-1,1053.5148,1171.9184)"
     gradientUnits="userSpaceOnUse">
    <stop
       offset="0"
       stop-color="#575652"
       id="stop144" />
    <stop
       offset="1"
       stop-color="#52524e"
       id="stop145" />
  </radialGradient>
  <path
     d="m 41.136864,8.9023842 c 4.176,2.2319998 7.56,5.6879998 9.863,9.7919998 V 8.9023842 Z"
     fill="url(#o)"
     id="path145"
     style="fill:url(#o)" />
  <path
     d="m 41.136864,8.9023842 c 4.176,2.2319998 7.56,5.6879998 9.863,9.7919998"
     fill="none"
     stroke="#a7a79c"
     stroke-width="0.34"
     stroke-linecap="round"
     id="path146" />
  <path
     d="m 41.136864,8.9023842 a 24.642,24.642 0 0 1 9.792,9.7919998"
     fill="none"
     stroke="#c2c2b9"
     stroke-width="0.236"
     stroke-linecap="round"
     id="path147" />
  <path
     d="m 41.064864,8.9023842 c 4.176,2.2319998 7.56,5.6879998 9.864,9.8639998"
     fill="none"
     stroke="#e0e0d8"
     stroke-width="0.132"
     stroke-linecap="round"
     id="path148" />
  <path
     d="m 41.064864,8.9023842 c 4.104,2.3049998 7.56,5.6879998 9.792,9.8639998"
     fill="none"
     stroke="#ffffff"
     stroke-width="0.028"
     stroke-linecap="round"
     id="path149" />
  <linearGradient
     id="p"
     gradientUnits="userSpaceOnUse"
     x1="-1012.522"
     y1="1163.124"
     x2="-1002.37"
     y2="1163.124"
     gradientTransform="matrix(1,0,0,-1,1053.5148,1171.9184)">
    <stop
       offset="0"
       stop-color="#5d5e60"
       id="stop149" />
    <stop
       offset=".019"
       stop-color="#5b5b5d"
       id="stop150" />
    <stop
       offset=".205"
       stop-color="#484846"
       id="stop151" />
    <stop
       offset=".41"
       stop-color="#343431"
       id="stop152" />
    <stop
       offset=".649"
       stop-color="#222120"
       id="stop153" />
    <stop
       offset="1"
       stop-color="#1b1a19"
       id="stop154" />
  </linearGradient>
  <path
     d="m 51.000864,8.6863842 c 0.072,0 0.145,0.072 0.145,0.216 h -10.154 c 10e-4,-0.144 0.073,-0.216 0.145,-0.216 z"
     fill="url(#p)"
     id="path154"
     style="fill:url(#p)" />
  <linearGradient
     id="q"
     gradientUnits="userSpaceOnUse"
     x1="-1002.478"
     y1="1153.007"
     x2="-1002.478"
     y2="1163.231"
     gradientTransform="matrix(1,0,0,-1,1053.5148,1171.9184)">
    <stop
       offset="0"
       stop-color="#5d5e60"
       id="stop155" />
    <stop
       offset=".386"
       stop-color="#464543"
       id="stop156" />
    <stop
       offset=".742"
       stop-color="#2a2927"
       id="stop157" />
    <stop
       offset="1"
       stop-color="#1b1a19"
       id="stop158" />
  </linearGradient>
  <path
     d="m 51.144864,18.694384 c 0,0.145 -0.072,0.217 -0.145,0.217 l -0.071,-0.145 V 8.6863842 h 0.071 c 0.072,0 0.145,0.072 0.145,0.216 z"
     fill="url(#q)"
     id="path158"
     style="fill:url(#q)" />
  <g
     id="g160"
     transform="translate(7.5848649,8.6863842)">
    <path
       d="m 37.44,24.222 c -1.922,0 -3.485,-1.177 -3.485,-2.622 0,-1.446 1.563,-2.622 3.485,-2.622 1.962,0 3.558,1.176 3.558,2.622 0,1.446 -1.596,2.622 -3.558,2.622 z m 0,-4.464 c -0.691,0 -1.194,0.775 -1.194,1.843 0,1.009 0.514,1.77 1.194,1.77 0.646,0 1.194,-0.811 1.194,-1.77 10e-4,-1.017 -0.536,-1.843 -1.194,-1.843 z m -21.888,4.464 c -1.923,0 -3.486,-1.177 -3.486,-2.622 0,-1.383 1.596,-2.551 3.486,-2.551 1.962,0 3.558,1.145 3.558,2.551 0,1.446 -1.596,2.622 -3.558,2.622 z m 0,-4.392 c -0.682,0 -1.194,0.761 -1.194,1.771 0,1.009 0.514,1.77 1.194,1.77 0.646,0 1.193,-0.811 1.193,-1.77 0,-0.959 -0.545,-1.771 -1.193,-1.771 z m 12.816,4.248 -2.258,-4.191 -1.125,0.017 -0.03,-0.678 4.926,-0.03 0.03,0.678 -1.254,0.03 1.754,2.907 1.459,-2.951 -0.837,0.043 -0.03,-0.678 3.414,-0.03 0.03,0.678 -1.182,0.03 -2.214,4.176 h -2.683 z m -9,0 -0.03,-0.822 1.183,-0.029 -0.03,-3.354 -1.122,0.03 -0.03,-0.678 4.566,-0.03 0.03,0.678 -1.183,0.03 0.03,3.354 1.194,-0.029 c 0.388,0 1.41,-0.254 1.481,-1.412 l 0.75,-0.028 0.03,2.292 h -6.869 z m -12.888,0 -2.258,-4.191 -1.125,0.017 -0.03,-0.678 4.926,-0.03 0.03,0.678 -1.254,0.03 1.754,2.907 1.532,-2.951 -0.91,0.044 -0.03,-0.678 3.414,-0.03 0.03,0.678 -1.183,0.03 -2.214,4.176 z"
       fill="#ffffff"
       id="path159" />
    <path
       d="m 37.44,19.008 c 1.944,0 3.528,1.152 3.528,2.593 0,1.439 -1.584,2.592 -3.528,2.592 -1.872,0 -3.456,-1.152 -3.456,-2.592 0,-1.441 1.584,-2.593 3.456,-2.593 m 0,4.392 c 0.647,0 1.224,-0.792 1.224,-1.8 0,-1.08 -0.576,-1.872 -1.224,-1.872 -0.72,0 -1.225,0.792 -1.225,1.872 10e-4,1.008 0.505,1.8 1.225,1.8 M 15.552,19.08 c 1.943,0 3.527,1.152 3.527,2.521 0,1.439 -1.584,2.592 -3.527,2.592 -1.872,0 -3.456,-1.152 -3.456,-2.592 0,-1.369 1.584,-2.521 3.456,-2.521 m 0,4.32 c 0.647,0 1.224,-0.792 1.224,-1.8 0,-1.009 -0.576,-1.801 -1.224,-1.801 -0.721,0 -1.225,0.792 -1.225,1.801 10e-4,1.008 0.505,1.8 1.225,1.8 m 18.864,-4.176 v 0.647 h -1.151 l -2.232,4.176 h -2.664 l -2.231,-4.176 h -1.152 v -0.647 h 4.896 v 0.647 h -1.224 l 1.729,2.952 1.512,-2.952 h -0.864 v -0.647 h 3.381 m -10.512,0 v 0.647 h -1.152 v 3.384 h 1.225 c 0.432,0 1.439,-0.288 1.512,-1.439 h 0.72 v 2.231 h -6.841 v -0.792 h 1.152 v -3.384 h -1.152 v -0.647 h 4.536 m -11.376,0 v 0.647 H 11.376 L 9.145,24.047 H 6.48 L 4.248,19.871 H 3.096 v -0.647 h 4.896 v 0.647 H 6.768 l 1.728,2.952 1.584,-2.952 H 9.144 v -0.647 h 3.384 M 37.44,18.948 c -1.938,0 -3.517,1.189 -3.517,2.652 0,1.462 1.577,2.651 3.517,2.651 1.979,0 3.588,-1.188 3.588,-2.651 0,-1.464 -1.61,-2.652 -3.588,-2.652 z m 0,4.392 c -0.664,0 -1.164,-0.748 -1.164,-1.739 0,-1.051 0.489,-1.812 1.164,-1.812 0.642,0 1.164,0.813 1.164,1.812 0,0.942 -0.533,1.739 -1.164,1.739 z M 15.552,19.02 c -1.906,0 -3.517,1.182 -3.517,2.58 0,1.462 1.577,2.651 3.517,2.651 1.979,0 3.588,-1.188 3.588,-2.651 0,-1.423 -1.609,-2.58 -3.588,-2.58 z m 0,4.32 c -0.664,0 -1.164,-0.748 -1.164,-1.739 0,-0.992 0.5,-1.74 1.164,-1.74 0.631,0 1.163,0.797 1.163,1.74 0.001,0.942 -0.532,1.739 -1.163,1.739 z m 18.924,-4.176 h -3.505 v 0.769 h 0.826 L 30.381,22.7 28.762,19.932 h 1.18 v -0.769 h -5.017 v 0.769 H 26.1 l 2.215,4.144 0.017,0.032 h 2.736 l 0.017,-0.032 2.216,-4.144 h 1.176 v -0.768 z m -10.512,0 h -4.656 v 0.769 h 1.152 v 3.264 h -1.152 v 0.913 h 6.961 v -2.353 h -0.837 l -0.004,0.057 c -0.071,1.135 -1.072,1.384 -1.452,1.384 h -1.164 v -3.264 h 1.152 z m -11.376,0 H 9.084 v 0.769 H 9.98 l -1.486,2.77 -1.621,-2.77 H 8.054 V 19.164 H 3.036 v 0.769 h 1.176 l 2.216,4.144 0.017,0.032 H 9.18 l 0.017,-0.032 2.215,-4.144 h 1.176 z"
       fill="#39393c"
       id="path160" />
  </g>
  <linearGradient
     id="r"
     gradientUnits="userSpaceOnUse"
     x1="-1040.0439"
     y1="1150.5439"
     x2="-1033.543"
     y2="1141.751"
     gradientTransform="matrix(1,0,0,-1,1053.5148,1171.9184)">
    <stop
       offset="0"
       stop-color="#fff"
       id="stop160" />
    <stop
       offset=".109"
       stop-color="#d5ddf0"
       id="stop161" />
    <stop
       offset=".338"
       stop-color="#94add9"
       id="stop162" />
    <stop
       offset=".542"
       stop-color="#668fc9"
       id="stop163" />
    <stop
       offset=".714"
       stop-color="#447dbf"
       id="stop164" />
    <stop
       offset=".848"
       stop-color="#2a74ba"
       id="stop165" />
    <stop
       offset=".927"
       stop-color="#1e71b8"
       id="stop166" />
    <stop
       offset=".947"
       stop-color="#4079bc"
       id="stop167" />
    <stop
       offset=".967"
       stop-color="#5580c0"
       id="stop168" />
    <stop
       offset=".985"
       stop-color="#6085c2"
       id="stop169" />
    <stop
       offset="1"
       stop-color="#6486c3"
       id="stop170" />
  </linearGradient>
  <path
     d="m 8.3828649,24.825384 c -0.432,1.728 -0.72,3.527 -0.72,5.399 0,0.155 0.053,1.072 0.058,1.227 l 0.125,1.391 c -0.002,-0.112 -0.058,-2.379 -0.058,-2.492 0,-1.872 0.312,-3.607 0.744,-5.336 l 15.0829991,-0.062 6.51,-0.125 z"
     fill="url(#r)"
     id="path170"
     style="fill:url(#r)" />
</svg>
